<svg width="45" height="43" viewBox="0 0 45 43" fill="none" xmlns="http://www.w3.org/2000/svg">
<path d="M14.7304 18.4106C14.1623 18.4106 13.7016 17.9649 13.7016 17.4155C13.7016 16.866 14.1623 16.4204 14.7304 16.4204H22.4997C23.0678 16.4204 23.5285 16.866 23.5285 17.4155C23.5285 17.9649 23.0678 18.4106 22.4997 18.4106H14.7304ZM14.7304 12.6317C14.1623 12.6317 13.7016 12.1861 13.7016 11.6366C13.7016 11.0871 14.1623 10.6415 14.7304 10.6415H30.2677C30.8357 10.6415 31.2965 11.0871 31.2965 11.6366C31.2965 12.1861 30.8357 12.6317 30.2677 12.6317H14.7304ZM14.7304 6.85099C14.1623 6.85099 13.7016 6.40535 13.7016 5.85589C13.7016 5.30646 14.1623 4.8608 14.7304 4.8608H30.2677C30.8357 4.8608 31.2965 5.30644 31.2965 5.85589C31.2965 6.40533 30.8357 6.85099 30.2677 6.85099H14.7304ZM6.99606 12.333H3.70988C2.69037 12.333 1.76147 12.7374 1.08984 13.3871C0.418154 14.0368 -1.43051e-05 14.9352 -1.43051e-05 15.9213V39.4116C-1.43051e-05 40.3977 0.418159 41.2962 1.08984 41.9458C1.76152 42.5955 2.69037 43 3.70988 43H41.2901C42.2893 43 43.1996 42.6134 43.8676 41.9888L43.9101 41.9441C44.5818 41.2944 45 40.396 45 39.4099V15.9196C45 14.9335 44.5818 14.035 43.9101 13.3854C43.2384 12.7357 42.3114 12.3312 41.2901 12.3312H38.0039V17.9117L39.9116 15.8195C40.2872 15.4097 40.9348 15.3721 41.3585 15.7336C41.7823 16.0969 41.823 16.7233 41.4474 17.1332L37.8022 21.1279C37.7652 21.1762 37.7263 21.2209 37.6819 21.2603L30.5416 29.0867L41.3492 38.098C41.7766 38.4559 41.8247 39.0841 41.4547 39.4975C41.0846 39.911 40.4352 39.9575 40.0077 39.5996L22.5018 25.0046L4.99394 39.5996C4.56651 39.9575 3.91707 39.9128 3.54698 39.4975C3.17691 39.0841 3.22317 38.4559 3.65245 38.098L14.4619 29.0867L7.31781 21.2548C7.27711 21.2172 7.2401 21.176 7.20494 21.1313L3.55611 17.1313C3.18049 16.7214 3.2212 16.095 3.64492 15.7317C4.06865 15.3684 4.71626 15.4078 5.09189 15.8176L6.99956 17.9098V12.3275L6.99606 12.333ZM35.9443 20.1699V0H9.05517V20.1699L16.0126 27.7961L21.8281 22.9478C22.2203 22.6185 22.7976 22.631 23.1751 22.9532L28.9853 27.7979L35.9428 20.1703L35.9443 20.1699Z" fill="white"/>
</svg>
