<svg width="36" height="44" viewBox="0 0 36 44" fill="none" xmlns="http://www.w3.org/2000/svg">
<path fill-rule="evenodd" clip-rule="evenodd" d="M2.45556 3.83737H5.92189V5.24857C5.92189 7.83573 8.05151 9.93991 10.6701 9.93991H25.3299C27.9484 9.93991 30.0781 7.83578 30.0781 5.24857V3.83737H33.5444C34.8976 3.83737 36 4.92834 36 6.26354V41.572C36 42.909 34.8958 43.9982 33.5444 43.9982L2.45556 44C1.10236 44 0 42.9108 0 41.5738V6.26349C0 4.92649 1.10236 3.83737 2.45556 3.83737ZM10.6698 7.67474H25.3297C26.6829 7.67474 27.7853 6.58557 27.7853 5.24857V2.42617C27.7853 1.08917 26.6811 0 25.3297 0H10.6698C9.31663 0 8.21427 1.09097 8.21427 2.42617V5.24857C8.21427 6.58557 9.31663 7.67474 10.6698 7.67474ZM7.83522 38.9287H22.2827C22.9163 38.9287 23.429 38.4221 23.429 37.7962C23.429 37.1702 22.9163 36.6636 22.2827 36.6636H7.83522C7.20163 36.6636 6.68894 37.1702 6.68894 37.7962C6.68894 38.4222 7.20168 38.9287 7.83522 38.9287ZM7.83522 34.1253H28.1644C28.798 34.1253 29.3107 33.6187 29.3107 32.9927C29.3107 32.3668 28.7979 31.8602 28.1644 31.8602H7.83522C7.20163 31.8602 6.68894 32.3668 6.68894 32.9927C6.68894 33.6187 7.20168 34.1253 7.83522 34.1253ZM18 13.2868C15.9437 13.2868 14.2774 14.9332 14.2774 16.965C14.2774 18.9967 15.9437 20.6431 18 20.6431C20.0564 20.6431 21.7227 18.9967 21.7227 16.965C21.7227 14.9332 20.0564 13.2868 18 13.2868ZM23.1143 26.5174C23.1143 23.7349 20.8163 21.4644 18 21.4644C15.1838 21.4644 12.8839 23.7331 12.8839 26.5174V28.674C12.8839 29.1191 13.2519 29.4827 13.7024 29.4827H22.2959C22.7464 29.4827 23.1144 29.1191 23.1144 28.674L23.1143 26.5174Z" fill="white"/>
</svg>
